<?xml version="1.0" encoding="UTF-8"?>
<svg id="Layer_1" xmlns="http://www.w3.org/2000/svg" version="1.1" viewBox="0 0 360 360">
  <!-- Generator: Adobe Illustrator 29.8.1, SVG Export Plug-In . SVG Version: 2.1.1 Build 2)  -->
  <defs>
    <style>
      .st0 {
        fill: #b92025;
      }

      .st1 {
        fill: #fff;
      }
    </style>
  </defs>
  <path class="st1" d="M65.34,170.8v13.78l5.71,4.44v3.24c0,2.8-.98,3.82-3.84,3.82h-2.86c-2.69,0-3.35-1.02-3.35-4.75v-20.86c0-3.73.65-4.58,3.35-4.58h22.2v-12.81h-49.08l5.88,6.89v12.03h.03v18.06c0,6.53,1.14,11.03,3.35,13.48,2.29,2.46,5.96,3.65,11.02,3.65h17.14c8.81,0,13.3-3.56,13.3-13.32v-7.93l-22.85-15.16Z"/>
  <path class="st1" d="M108.1,153.11v21.56c2.76-3.74,7.27-6.05,11.79-6.05,7.88,0,11.71,4.85,11.71,12.41,0,4.85-2.99,7.3-7.5,9.81l10.26,16.28h-18.37l-6.58-17.08s6.35-1.61,6.35-5.47c0-2.47-1.07-4.97-3.29-4.97-2.53,0-4.36,2.07-4.36,4.93v22.59h-16.38v-47.78l-4.13-6.23h20.51Z"/>
  <path class="st1" d="M162.39,168.69h-32.3l4.13,6.23v14.34h0v4.57c0,5.41,1.38,8.99,4.13,10.9,2.76,1.91,5.82,2.55,10.41,2.55h13.62c8.5,0,12.25-3.98,12.25-12.65v-12.49c0-8.99-4.06-13.44-12.25-13.44ZM158.26,194.78c0,2.86-.77,3.98-3.22,3.98h-1.22c-2.45,0-3.22-1.11-3.22-3.98v-12.81c0-2.86.77-3.98,3.22-3.98h1.22c2.45,0,3.22,1.11,3.22,3.98v12.81Z"/>
  <path class="st1" d="M217.78,193.44c0,2.94.46,3.26,4.13,3.26v10.42h-9.95c-4.59,0-6.66-.56-8.19-3.66-1.61,2.47-4.52,3.66-8.57,3.66h-3.44c-4.67,0-8.27-.95-10.72-2.78-2.37-1.91-3.6-5.49-3.6-10.66v-12.33c0-8.51,3.98-12.81,12.02-12.81,6.35,0,10.33,2.39,11.94,5.33v-14.53l-4.13-6.23h20.51v40.33ZM201.4,183.42c0-2.86-.76-3.98-3.21-3.98h-1.23c-2.45,0-3.21,1.11-3.21,3.98v9.62c0,2.86.76,3.98,3.21,3.98h1.23c2.45,0,3.21-1.11,3.21-3.98v-9.62Z"/>
  <path class="st1" d="M245.03,196.7c-3.29,0-3.98-.48-3.98-6.98v-21.18h-20.51l4.13,6.23v18.91c0,9.55,3.83,13.44,13.62,13.44h8.73v-10.42h-1.99Z"/>
  <path class="st0" d="M224.97,161.34c0,1.27.77,1.91,2.22,1.91h13.85v-8.23c0-1.27-.77-1.91-2.22-1.91h-17.89l4.04,6.08v2.15Z"/>
  <path class="st1" d="M279,153.09v12.24h-8.7c-2.62,0-3.69.24-3.69,3.2v13.52h9.16v13.92h-9.08v11.36h-16.48v-19.02l-6.16-6.26h6.16v-16.64c0-8.32,3.99-12.32,9.81-12.32h18.98Z"/>
  <path class="st1" d="M305.57,153.09v24.08c0,2.81-.75,3.91-3.16,3.91h-.6c-2.41,0-3.16-1.09-3.16-3.91v-24.08h-19.48l4.06,6.12v18.58c0,11.88,9.48,13.21,14.07,13.21h.6c3.91,0,6.77-1.56,7.67-3.2v6.33c0,3.05-.68,3.67-3.91,3.67h-.6c-2.1,0-2.73-1.25-2.84-3.01h-14.29c0,9.69,4.82,12.31,12.4,12.31h12.86c5.64,0,12.49-2.39,12.49-11.49v-42.53h-16.1Z"/>
</svg>